RobotoFlexCondensed-Regular.ufo
<glyph name="numbersign" format="2">
  <advance width="1446"/>
  <unicode hex="0023"/>
  <outline>
    <contour>
      <point x="246.93333333333334" y="-20.0" type="line"/>
      <point x="649.8" y="1474.3333333333333" type="line"/>
      <point x="787.4" y="1474.3333333333333" type="line"/>
      <point x="385.6" y="-20.0" type="line"/>
    </contour>
    <contour>
      <point x="660.1333333333333" y="-20.0" type="line"/>
      <point x="1061.9333333333334" y="1474.3333333333333" type="line"/>
      <point x="1200.6" y="1474.3333333333333" type="line"/>
      <point x="798.8" y="-20.0" type="line"/>
    </contour>
    <contour>
      <point x="115.2" y="406.1333333333333" type="line"/>
      <point x="115.2" y="539.8666666666667" type="line"/>
      <point x="1265.2666666666667" y="539.8666666666667" type="line"/>
      <point x="1265.2666666666667" y="406.1333333333333" type="line"/>
    </contour>
    <contour>
      <point x="182.2" y="914.4666666666667" type="line"/>
      <point x="182.2" y="1048.2" type="line"/>
      <point x="1332.3333333333333" y="1048.2" type="line"/>
      <point x="1332.3333333333333" y="914.4666666666667" type="line"/>
    </contour>
  </outline>
</glyph>
<glyph name="parenleft" format="2">
  <advance width="691"/>
  <unicode hex="0028"/>
  <outline>
    <contour>
      <point x="582.9333333333334" y="-436.0" type="line"/>
      <point x="328" y="-302"/>
      <point x="124" y="-16"/>
      <point x="124.0" y="515.0" type="curve" smooth="yes"/>
      <point x="124.0" y="525.0" type="line" smooth="yes"/>
      <point x="124" y="1055"/>
      <point x="328" y="1342"/>
      <point x="582.9333333333334" y="1476.0" type="curve"/>
      <point x="582.9333333333334" y="1322.6666666666667" type="line"/>
      <point x="434" y="1219"/>
      <point x="309" y="1003"/>
      <point x="309.4" y="532.0" type="curve" smooth="yes"/>
      <point x="309.4" y="508.0" type="line" smooth="yes"/>
      <point x="309" y="36"/>
      <point x="434" y="-179"/>
      <point x="582.9333333333334" y="-282.6666666666667" type="curve"/>
    </contour>
  </outline>
</glyph>
<glyph name="one" format="2">
  <advance width="1030"/>
  <unicode hex="0031"/>
  <outline>
    <contour>
      <point x="480.26666666666665" y="0.0" type="line"/>
      <point x="480.26666666666665" y="1238.6" type="line"/>
      <point x="186.93333333333334" y="1114.5333333333333" type="line"/>
      <point x="186.93333333333334" y="1294.1333333333334" type="line"/>
      <point x="638.0" y="1476.0" type="line"/>
      <point x="663.7333333333333" y="1476.0" type="line"/>
      <point x="663.7333333333333" y="0.0" type="line"/>
    </contour>
  </outline>
</glyph>
<glyph name="three" format="2">
  <advance width="1030"/>
  <unicode hex="0033"/>
  <outline>
    <contour>
      <point x="88.53333333333333" y="380.0" type="curve" smooth="yes"/>
      <point x="88.53333333333333" y="390.0" type="line"/>
      <point x="266.0" y="390.0" type="line"/>
      <point x="266.0" y="380.0" type="line" smooth="yes"/>
      <point x="266" y="216"/>
      <point x="356" y="123"/>
      <point x="494.0" y="122.66666666666667" type="curve" smooth="yes"/>
      <point x="632" y="123"/>
      <point x="720" y="210"/>
      <point x="720.0" y="400.0" type="curve" smooth="yes"/>
      <point x="720" y="589"/>
      <point x="619" y="684"/>
      <point x="461.3333333333333" y="684.1333333333333" type="curve" smooth="yes"/>
      <point x="361.26666666666665" y="684.1333333333333" type="line"/>
      <point x="361.26666666666665" y="833.8666666666667" type="line"/>
      <point x="452.4" y="833.8666666666667" type="line" smooth="yes"/>
      <point x="597" y="834"/>
      <point x="676" y="927"/>
      <point x="676.4" y="1091.0666666666666" type="curve" smooth="yes"/>
      <point x="676" y="1253"/>
      <point x="607" y="1333"/>
      <point x="494.0" y="1333.3333333333333" type="curve" smooth="yes"/>
      <point x="383" y="1333"/>
      <point x="301" y="1250"/>
      <point x="300.6666666666667" y="1100.0" type="curve" smooth="yes"/>
      <point x="300.6666666666667" y="1090.0" type="line"/>
      <point x="123.2" y="1090.0" type="line"/>
      <point x="123.2" y="1100.0" type="line" smooth="yes"/>
      <point x="123" y="1314"/>
      <point x="282" y="1486"/>
      <point x="494.0" y="1486.0" type="curve" smooth="yes"/>
      <point x="710" y="1486"/>
      <point x="860" y="1328"/>
      <point x="859.8666666666667" y="1100.0" type="curve" smooth="yes"/>
      <point x="860" y="966"/>
      <point x="800" y="833"/>
      <point x="665.8666666666667" y="766.0" type="curve"/>
      <point x="665.8666666666667" y="762.0" type="line"/>
      <point x="812" y="719"/>
      <point x="905" y="587"/>
      <point x="905.4666666666667" y="401.0" type="curve" smooth="yes"/>
      <point x="905" y="132"/>
      <point x="733" y="-30"/>
      <point x="494.0" y="-30.0" type="curve" smooth="yes"/>
      <point x="260" y="-30"/>
      <point x="89" y="139"/>
    </contour>
  </outline>
</glyph>
<glyph name="less" format="2">
  <advance width="1071"/>
  <unicode hex="003C"/>
  <outline>
    <contour>
      <point x="886.0" y="224.2" type="line"/>
      <point x="176.8" y="604.2666666666667" type="line"/>
      <point x="176.8" y="744.0" type="line"/>
      <point x="886.0" y="1124.0666666666666" type="line"/>
      <point x="886.0" y="941.7333333333333" type="line"/>
      <point x="361.3333333333333" y="673.8" type="line"/>
      <point x="886.0" y="405.8666666666667" type="line"/>
    </contour>
  </outline>
</glyph>
<glyph name="equal" format="2">
  <advance width="1065"/>
  <unicode hex="003D"/>
  <outline>
    <contour>
      <point x="162.6" y="393.8" type="line"/>
      <point x="162.6" y="552.1333333333333" type="line"/>
      <point x="901.9333333333334" y="552.1333333333333" type="line"/>
      <point x="901.9333333333334" y="393.8" type="line"/>
    </contour>
    <contour>
      <point x="162.6" y="797.3333333333334" type="line"/>
      <point x="162.6" y="955.6666666666666" type="line"/>
      <point x="901.9333333333334" y="955.6666666666666" type="line"/>
      <point x="901.9333333333334" y="797.3333333333334" type="line"/>
    </contour>
  </outline>
</glyph>
<glyph name="B" format="2">
  <advance width="1115"/>
  <unicode hex="0042"/>
  <outline>
    <contour>
      <point x="170.0" y="0.0" type="line"/>
      <point x="170.0" y="1456.0" type="line"/>
      <point x="566.8" y="1456.0" type="line" smooth="yes"/>
      <point x="823" y="1456"/>
      <point x="977" y="1338"/>
      <point x="976.9333333333334" y="1071.0666666666666" type="curve" smooth="yes"/>
      <point x="977" y="909"/>
      <point x="899" y="805"/>
      <point x="792.6666666666666" y="768.0" type="curve"/>
      <point x="792.6666666666666" y="764.0" type="line"/>
      <point x="926" y="725"/>
      <point x="1015" y="608"/>
      <point x="1014.9333333333334" y="417.8666666666667" type="curve" smooth="yes"/>
      <point x="1015" y="153"/>
      <point x="850" y="0"/>
      <point x="596.8" y="0.0" type="curve" smooth="yes"/>
    </contour>
    <contour>
      <point x="349.46666666666664" y="152.66666666666666" type="line"/>
      <point x="596.8" y="152.66666666666666" type="line" smooth="yes"/>
      <point x="761" y="153"/>
      <point x="833" y="255"/>
      <point x="833.4666666666667" y="418.93333333333334" type="curve" smooth="yes"/>
      <point x="833" y="581"/>
      <point x="761" y="682"/>
      <point x="596.8" y="682.1333333333333" type="curve" smooth="yes"/>
      <point x="349.46666666666664" y="682.1333333333333" type="line"/>
    </contour>
    <contour>
      <point x="349.46666666666664" y="833.8666666666667" type="line"/>
      <point x="566.8" y="833.8666666666667" type="line" smooth="yes"/>
      <point x="729" y="834"/>
      <point x="795" y="921"/>
      <point x="795.4666666666667" y="1071.0666666666666" type="curve" smooth="yes"/>
      <point x="795" y="1221"/>
      <point x="729" y="1303"/>
      <point x="566.8" y="1303.3333333333333" type="curve" smooth="yes"/>
      <point x="349.46666666666664" y="1303.3333333333333" type="line"/>
    </contour>
  </outline>
</glyph>
<glyph name="C" format="2">
  <advance width="1145"/>
  <unicode hex="0043"/>
  <outline>
    <contour>
      <point x="115.0" y="682.0" type="curve" smooth="yes"/>
      <point x="115.0" y="774.0" type="line" smooth="yes"/>
      <point x="115" y="1264"/>
      <point x="318" y="1486"/>
      <point x="630.4" y="1486.0" type="curve" smooth="yes"/>
      <point x="924" y="1486"/>
      <point x="1091" y="1296"/>
      <point x="1096.652380952381" y="1000.0" type="curve" smooth="yes"/>
      <point x="1096.8666666666668" y="990.0" type="line"/>
      <point x="913.4" y="990.0" type="line"/>
      <point x="913.1857142857143" y="1000.0" type="line" smooth="yes"/>
      <point x="910" y="1167"/>
      <point x="842" y="1327"/>
      <point x="630.4" y="1327.3333333333333" type="curve" smooth="yes"/>
      <point x="407" y="1327"/>
      <point x="299" y="1155"/>
      <point x="299.4" y="817.7333333333333" type="curve" smooth="yes"/>
      <point x="299.4" y="639.3333333333334" type="line" smooth="yes"/>
      <point x="299" y="309"/>
      <point x="428" y="129"/>
      <point x="629.3333333333334" y="128.66666666666666" type="curve" smooth="yes"/>
      <point x="822" y="129"/>
      <point x="907" y="298"/>
      <point x="913.4666666666667" y="456.0" type="curve"/>
      <point x="913.4" y="466.0" type="line"/>
      <point x="1096.8666666666668" y="466.0" type="line"/>
      <point x="1096.9333333333334" y="456.0" type="line" smooth="yes"/>
      <point x="1099" y="159"/>
      <point x="924" y="-30"/>
      <point x="630.4" y="-30.0" type="curve" smooth="yes"/>
      <point x="315" y="-30"/>
      <point x="115" y="199"/>
    </contour>
  </outline>
</glyph>
<glyph name="G" format="2">
  <advance width="1167"/>
  <unicode hex="0047"/>
  <outline>
    <contour>
      <point x="115.0" y="682.0" type="curve" smooth="yes"/>
      <point x="115.0" y="774.0" type="line" smooth="yes"/>
      <point x="115" y="1259"/>
      <point x="321" y="1486"/>
      <point x="625.2666666666667" y="1486.0" type="curve" smooth="yes"/>
      <point x="916" y="1486"/>
      <point x="1062" y="1308"/>
      <point x="1089.2666666666667" y="1039.7190476190476" type="curve" smooth="yes"/>
      <point x="1090.2666666666667" y="1030.0" type="line"/>
      <point x="906.8" y="1030.0" type="line"/>
      <point x="906.8" y="1040.0" type="line" smooth="yes"/>
      <point x="907" y="1205"/>
      <point x="810" y="1327"/>
      <point x="625.4" y="1327.3333333333333" type="curve" smooth="yes"/>
      <point x="409" y="1327"/>
      <point x="299" y="1174"/>
      <point x="299.4" y="816.6666666666666" type="curve" smooth="yes"/>
      <point x="299.4" y="639.3333333333334" type="line" smooth="yes"/>
      <point x="299" y="291"/>
      <point x="424" y="129"/>
      <point x="633.7333333333333" y="128.66666666666666" type="curve" smooth="yes"/>
      <point x="760" y="129"/>
      <point x="846" y="154"/>
      <point x="912.8" y="205.46666666666667" type="curve"/>
      <point x="912.8" y="572.1333333333333" type="line"/>
      <point x="636.1333333333333" y="572.1333333333333" type="line"/>
      <point x="636.1333333333333" y="725.8666666666667" type="line"/>
      <point x="1090.2666666666667" y="725.8666666666667" type="line"/>
      <point x="1090.2666666666667" y="137.6" type="line"/>
      <point x="1011" y="55"/>
      <point x="874" y="-30"/>
      <point x="628.4" y="-30.0" type="curve" smooth="yes"/>
      <point x="323" y="-30"/>
      <point x="115" y="163"/>
    </contour>
  </outline>
</glyph>
<glyph name="J" format="2">
  <advance width="955"/>
  <unicode hex="004A"/>
  <outline>
    <contour>
      <point x="25.0" y="400.0" type="curve" smooth="yes"/>
      <point x="25.0" y="410.0" type="line"/>
      <point x="208.46666666666667" y="410.0" type="line"/>
      <point x="208.46666666666667" y="368.0" type="line" smooth="yes"/>
      <point x="208" y="190"/>
      <point x="278" y="129"/>
      <point x="412.4666666666667" y="128.66666666666666" type="curve" smooth="yes"/>
      <point x="546" y="129"/>
      <point x="616" y="203"/>
      <point x="616.4666666666667" y="393.0" type="curve" smooth="yes"/>
      <point x="616.4666666666667" y="1456.0" type="line"/>
      <point x="798.8666666666667" y="1456.0" type="line"/>
      <point x="798.8666666666667" y="425.0" type="line" smooth="yes"/>
      <point x="799" y="115"/>
      <point x="651" y="-30"/>
      <point x="412.4666666666667" y="-30.0" type="curve" smooth="yes"/>
      <point x="172" y="-30"/>
      <point x="25" y="103"/>
    </contour>
  </outline>
</glyph>
<glyph name="L" format="2">
  <advance width="942"/>
  <unicode hex="004C"/>
  <outline>
    <contour>
      <point x="170.0" y="0.0" type="line"/>
      <point x="170.0" y="1456.0" type="line"/>
      <point x="353.46666666666664" y="1456.0" type="line"/>
      <point x="353.46666666666664" y="152.66666666666666" type="line"/>
      <point x="919.7333333333333" y="152.66666666666666" type="line"/>
      <point x="919.7333333333333" y="0.0" type="line"/>
    </contour>
  </outline>
</glyph>
<glyph name="V" format="2">
  <advance width="1032"/>
  <unicode hex="0056"/>
  <outline>
    <contour>
      <point x="0.0" y="1456.0" type="line"/>
      <point x="189.06666666666666" y="1456.0" type="line"/>
      <point x="486.5333333333333" y="368.4" type="line" smooth="yes"/>
      <point x="498" y="324"/>
      <point x="508" y="282"/>
      <point x="513.9333333333334" y="236.46666666666667" type="curve"/>
      <point x="522.0809523809523" y="236.46666666666667" type="line"/>
      <point x="526" y="282"/>
      <point x="536" y="324"/>
      <point x="548.1333333333333" y="368.4" type="curve" smooth="yes"/>
      <point x="849.6" y="1456.0" type="line"/>
      <point x="1031.7333333333333" y="1456.0" type="line"/>
      <point x="609.3333333333334" y="-10.0" type="line"/>
      <point x="422.4" y="-10.0" type="line"/>
    </contour>
  </outline>
</glyph>
<glyph name="X" format="2">
  <advance width="1027"/>
  <unicode hex="0058"/>
  <outline>
    <contour>
      <point x="25.0" y="0.0" type="line"/>
      <point x="451.93333333333334" y="803.8666666666667" type="line"/>
      <point x="463.8" y="803.8666666666667" type="line"/>
      <point x="790.4" y="1456.0" type="line"/>
      <point x="981.0666666666666" y="1456.0" type="line"/>
      <point x="573.8" y="672.1333333333333" type="line"/>
      <point x="564.0666666666666" y="672.1333333333333" type="line"/>
      <point x="215.66666666666666" y="0.0" type="line"/>
    </contour>
    <contour>
      <point x="45.733333333333334" y="1456.0" type="line"/>
      <point x="239.33333333333334" y="1456.0" type="line"/>
      <point x="567.0" y="803.8666666666667" type="line"/>
      <point x="574.8666666666667" y="803.8666666666667" type="line"/>
      <point x="1001.8" y="0.0" type="line"/>
      <point x="807.1333333333333" y="0.0" type="line"/>
      <point x="459.8" y="672.1333333333333" type="line"/>
      <point x="451.93333333333334" y="672.1333333333333" type="line"/>
    </contour>
  </outline>
</glyph>
<glyph name="a" format="2">
  <advance width="963"/>
  <unicode hex="0061"/>
  <outline>
    <contour>
      <point x="90.0" y="314.2952380952381" type="curve" smooth="yes"/>
      <point x="90" y="540"/>
      <point x="233" y="659"/>
      <point x="469.6" y="658.7238095238096" type="curve" smooth="yes"/>
      <point x="647.8666666666667" y="658.7238095238096" type="line"/>
      <point x="647.8666666666667" y="744.8571428571429" type="line" smooth="yes"/>
      <point x="648" y="875"/>
      <point x="606" y="963"/>
      <point x="486.4" y="963.1238095238095" type="curve" smooth="yes"/>
      <point x="367" y="963"/>
      <point x="320" y="881"/>
      <point x="319.93333333333334" y="786.2857142857143" type="curve" smooth="yes"/>
      <point x="319.93333333333334" y="781.2857142857143" type="line"/>
      <point x="143.46666666666667" y="781.2857142857143" type="line"/>
      <point x="143.46666666666667" y="786.2857142857143" type="line" smooth="yes"/>
      <point x="143" y="973"/>
      <point x="277" y="1107"/>
      <point x="490.3333333333333" y="1106.857142857143" type="curve" smooth="yes"/>
      <point x="705" y="1107"/>
      <point x="825" y="1000"/>
      <point x="825.3333333333334" y="744.8571428571429" type="curve" smooth="yes"/>
      <point x="825.3333333333334" y="240.0" type="line" smooth="yes"/>
      <point x="825" y="153"/>
      <point x="838" y="75"/>
      <point x="859.0666666666666" y="16.0" type="curve"/>
      <point x="859.0666666666666" y="0.0" type="line"/>
      <point x="686.5333333333333" y="0.0" type="line"/>
      <point x="672" y="32"/>
      <point x="657" y="85"/>
      <point x="651.8666666666667" y="135.4190476190476" type="curve"/>
      <point x="613" y="54"/>
      <point x="529" y="-20"/>
      <point x="393.4666666666667" y="-20.0" type="curve" smooth="yes"/>
      <point x="222" y="-20"/>
      <point x="90" y="83"/>
    </contour>
    <contour>
      <point x="267.46666666666664" y="313.62857142857143" type="curve" smooth="yes"/>
      <point x="267" y="180"/>
      <point x="322" y="124"/>
      <point x="424.93333333333334" y="123.73333333333333" type="curve" smooth="yes"/>
      <point x="535" y="124"/>
      <point x="648" y="208"/>
      <point x="647.8666666666667" y="346.8857142857143" type="curve" smooth="yes"/>
      <point x="647.8666666666667" y="530.9904761904762" type="line"/>
      <point x="486.4" y="530.9904761904762" type="line" smooth="yes"/>
      <point x="345" y="531"/>
      <point x="267" y="467"/>
    </contour>
  </outline>
</glyph>
<glyph name="b" format="2">
  <advance width="1023"/>
  <unicode hex="0062"/>
  <outline>
    <contour>
      <point x="148.0" y="0.0" type="line"/>
      <point x="148.0" y="1536.0" type="line"/>
      <point x="325.46666666666664" y="1536.0" type="line"/>
      <point x="325.46666666666664" y="968.8571428571429" type="line"/>
      <point x="376" y="1047"/>
      <point x="458" y="1097"/>
      <point x="576.7333333333333" y="1096.857142857143" type="curve" smooth="yes"/>
      <point x="798" y="1097"/>
      <point x="938" y="870"/>
      <point x="937.8" y="554.4285714285714" type="curve" smooth="yes"/>
      <point x="937.8" y="522.4285714285714" type="line" smooth="yes"/>
      <point x="938" y="207"/>
      <point x="798" y="-20"/>
      <point x="576.7333333333333" y="-20.0" type="curve" smooth="yes"/>
      <point x="458" y="-20"/>
      <point x="365" y="41"/>
      <point x="321.46666666666664" y="121.0" type="curve"/>
      <point x="317.6" y="121.0" type="line"/>
      <point x="310.6666666666667" y="0.0" type="line"/>
    </contour>
    <contour>
      <point x="325.46666666666664" y="286.4" type="line"/>
      <point x="358" y="201"/>
      <point x="431" y="128"/>
      <point x="533.5333333333333" y="127.73333333333333" type="curve" smooth="yes"/>
      <point x="687" y="128"/>
      <point x="756" y="266"/>
      <point x="756.3333333333334" y="490.42857142857144" type="curve" smooth="yes"/>
      <point x="756.3333333333334" y="586.4285714285714" type="line" smooth="yes"/>
      <point x="756" y="811"/>
      <point x="686" y="949"/>
      <point x="537.8" y="949.1238095238095" type="curve"/>
      <point x="440" y="949"/>
      <point x="353" y="864"/>
      <point x="325.46666666666664" y="790.4571428571428" type="curve"/>
    </contour>
  </outline>
</glyph>
<glyph name="g" format="2">
  <advance width="1023"/>
  <unicode hex="0067"/>
  <outline>
    <contour>
      <point x="118.66666666666667" y="-286.1333333333333" type="curve"/>
      <point x="225.0" y="-150.4" type="line"/>
      <point x="274" y="-217"/>
      <point x="363" y="-279"/>
      <point x="472.4666666666667" y="-279.3333333333333" type="curve" smooth="yes"/>
      <point x="612" y="-279"/>
      <point x="697" y="-170"/>
      <point x="697.3333333333334" y="20.0" type="curve" smooth="yes"/>
      <point x="697.3333333333334" y="108.0" type="line"/>
      <point x="647" y="29"/>
      <point x="570" y="-20"/>
      <point x="432.2" y="-20.0" type="curve" smooth="yes"/>
      <point x="216" y="-20"/>
      <point x="85" y="193"/>
      <point x="85.0" y="522.4285714285714" type="curve" smooth="yes"/>
      <point x="85.0" y="554.4285714285714" type="line" smooth="yes"/>
      <point x="85" y="870"/>
      <point x="225" y="1097"/>
      <point x="446.06666666666666" y="1096.857142857143" type="curve" smooth="yes"/>
      <point x="565" y="1097"/>
      <point x="658" y="1036"/>
      <point x="701.3333333333334" y="955.8571428571429" type="curve"/>
      <point x="705.2" y="955.8571428571429" type="line"/>
      <point x="712.1333333333333" y="1076.857142857143" type="line"/>
      <point x="874.8" y="1076.857142857143" type="line"/>
      <point x="874.8" y="20.0" type="line" smooth="yes"/>
      <point x="875" y="-275"/>
      <point x="715" y="-436"/>
      <point x="477.4666666666667" y="-436.0" type="curve" smooth="yes"/>
      <point x="329" y="-436"/>
      <point x="205" y="-375"/>
    </contour>
    <contour>
      <point x="266.46666666666664" y="486.16190476190474" type="line" smooth="yes"/>
      <point x="266" y="262"/>
      <point x="334" y="128"/>
      <point x="481.8" y="127.73333333333333" type="curve" smooth="yes"/>
      <point x="599" y="128"/>
      <point x="674" y="203"/>
      <point x="697.3333333333334" y="286.4" type="curve"/>
      <point x="697.3333333333334" y="790.4571428571428" type="line"/>
      <point x="670" y="859"/>
      <point x="599" y="949"/>
      <point x="496.73333333333335" y="949.1238095238095" type="curve" smooth="yes"/>
      <point x="333" y="949"/>
      <point x="266" y="806"/>
      <point x="266.46666666666664" y="582.1619047619048" type="curve" smooth="yes"/>
    </contour>
  </outline>
</glyph>
<glyph name="h" format="2">
  <advance width="1003"/>
  <unicode hex="0068"/>
  <outline>
    <contour>
      <point x="148.0" y="0.0" type="line"/>
      <point x="148.0" y="1536.0" type="line"/>
      <point x="325.46666666666664" y="1536.0" type="line"/>
      <point x="325.46666666666664" y="938.3238095238095" type="line"/>
      <point x="378" y="1035"/>
      <point x="468" y="1097"/>
      <point x="601.6952380952381" y="1096.857142857143" type="curve" smooth="yes"/>
      <point x="755" y="1097"/>
      <point x="865" y="984"/>
      <point x="864.5333333333333" y="751.8571428571429" type="curve" smooth="yes"/>
      <point x="864.5333333333333" y="0.0" type="line"/>
      <point x="687.0666666666666" y="0.0" type="line"/>
      <point x="687.0666666666666" y="753.8571428571429" type="line" smooth="yes"/>
      <point x="687" y="878"/>
      <point x="643" y="946"/>
      <point x="544.7333333333333" y="946.1904761904761" type="curve" smooth="yes"/>
      <point x="437" y="946"/>
      <point x="356" y="862"/>
      <point x="325.46666666666664" y="768.8571428571429" type="curve"/>
      <point x="325.46666666666664" y="0.0" type="line"/>
    </contour>
  </outline>
</glyph>
<glyph name="x" format="2">
  <advance width="837"/>
  <unicode hex="0078"/>
  <outline>
    <contour>
      <point x="20.0" y="0.0" type="line"/>
      <point x="351.73333333333335" y="592.2952380952381" type="line"/>
      <point x="361.6666666666667" y="592.2952380952381" type="line"/>
      <point x="612.8" y="1076.857142857143" type="line"/>
      <point x="800.4" y="1076.857142857143" type="line"/>
      <point x="481.2" y="498.56190476190477" type="line"/>
      <point x="469.1333333333333" y="498.56190476190477" type="line"/>
      <point x="206.53333333333333" y="0.0" type="line"/>
    </contour>
    <contour>
      <point x="37.86666666666667" y="1076.857142857143" type="line"/>
      <point x="226.33333333333334" y="1076.857142857143" type="line"/>
      <point x="483.8666666666667" y="592.2952380952381" type="line"/>
      <point x="485.4666666666667" y="592.2952380952381" type="line"/>
      <point x="817.2" y="0.0" type="line"/>
      <point x="628.7333333333333" y="0.0" type="line"/>
      <point x="360.8" y="498.56190476190477" type="line"/>
      <point x="358.1333333333333" y="498.56190476190477" type="line"/>
    </contour>
  </outline>
</glyph>
<glyph name="currency" format="2">
  <advance width="1051"/>
  <unicode hex="00A4"/>
  <guideline x="0" y="901.0" angle="0" identifier="bRYxxRaQQf"/>
  <guideline x="0" y="555.0" angle="0" identifier="917FhrihjR"/>
  <outline>
    <contour>
      <point x="261.0" y="712.0" type="curve"/>
      <point x="261" y="518"/>
      <point x="347" y="373"/>
      <point x="522.6666666666666" y="373.0" type="curve" smooth="yes"/>
      <point x="697" y="373"/>
      <point x="782" y="518"/>
      <point x="782.3333333333334" y="712.0" type="curve" smooth="yes"/>
      <point x="782" y="904"/>
      <point x="697" y="1049"/>
      <point x="522.6666666666666" y="1049.0" type="curve" smooth="yes"/>
      <point x="347" y="1049"/>
      <point x="261" y="904"/>
    </contour>
    <contour>
      <point x="78.0" y="718.0" type="curve"/>
      <point x="78" y="1006"/>
      <point x="252" y="1225"/>
      <point x="521.6666666666666" y="1225.0" type="curve" smooth="yes"/>
      <point x="791" y="1225"/>
      <point x="965" y="1006"/>
      <point x="965.3333333333334" y="718.0" type="curve" smooth="yes"/>
      <point x="965" y="431"/>
      <point x="791" y="209"/>
      <point x="521.6666666666666" y="209.0" type="curve" smooth="yes"/>
      <point x="252" y="209"/>
      <point x="78" y="431"/>
    </contour>
    <contour>
      <point x="1012.3333333333334" y="1176.0" type="line"/>
      <point x="810.3333333333334" y="970.0" type="line"/>
      <point x="688.3333333333334" y="1097.0" type="line"/>
      <point x="890.3333333333334" y="1303.0" type="line"/>
    </contour>
    <contour>
      <point x="335.0" y="354.0" type="line"/>
      <point x="133.0" y="148.0" type="line"/>
      <point x="12.0" y="274.0" type="line"/>
      <point x="214.0" y="479.0" type="line"/>
    </contour>
    <contour>
      <point x="916.3333333333334" y="155.0" type="line"/>
      <point x="714.3333333333334" y="361.0" type="line"/>
      <point x="837.3333333333334" y="487.0" type="line"/>
      <point x="1039.3333333333333" y="282.0" type="line"/>
    </contour>
    <contour>
      <point x="231.0" y="984.0" type="line"/>
      <point x="29.0" y="1190.0" type="line"/>
      <point x="150.0" y="1316.0" type="line"/>
      <point x="352.0" y="1110.0" type="line"/>
    </contour>
  </outline>
</glyph>
<glyph name="degree" format="2">
  <advance width="765"/>
  <unicode hex="00B0"/>
  <outline>
    <contour>
      <point x="141.66666666666666" y="1217.0" type="curve" smooth="yes"/>
      <point x="142" y="1369"/>
      <point x="242" y="1477"/>
      <point x="386.0" y="1477.0" type="curve" smooth="yes"/>
      <point x="527" y="1477"/>
      <point x="626" y="1369"/>
      <point x="626.3333333333334" y="1217.0" type="curve" smooth="yes"/>
      <point x="626" y="1066"/>
      <point x="527" y="960"/>
      <point x="386.0" y="960.0" type="curve" smooth="yes"/>
      <point x="242" y="960"/>
      <point x="142" y="1066"/>
    </contour>
    <contour>
      <point x="265.6666666666667" y="1217.0" type="curve" smooth="yes"/>
      <point x="266" y="1142"/>
      <point x="315" y="1088"/>
      <point x="386.0" y="1088.0" type="curve" smooth="yes"/>
      <point x="454" y="1088"/>
      <point x="502" y="1142"/>
      <point x="502.3333333333333" y="1217.0" type="curve" smooth="yes"/>
      <point x="502" y="1295"/>
      <point x="454" y="1349"/>
      <point x="386.0" y="1349.0" type="curve" smooth="yes"/>
      <point x="315" y="1349"/>
      <point x="266" y="1295"/>
    </contour>
  </outline>
</glyph>
<glyph name="twosuperior" format="2">
  <advance width="671"/>
  <unicode hex="00B2"/>
  <outline>
    <contour>
      <point x="77.53333333333333" y="697.0" type="line"/>
      <point x="77.53333333333333" y="805.0" type="line"/>
      <point x="301.5333333333333" y="1066.0" type="line" smooth="yes"/>
      <point x="383" y="1159"/>
      <point x="415" y="1205"/>
      <point x="414.8666666666667" y="1249.0" type="curve" smooth="yes"/>
      <point x="415" y="1316"/>
      <point x="384" y="1352"/>
      <point x="330.5333333333333" y="1352.3333333333333" type="curve" smooth="yes"/>
      <point x="259" y="1352"/>
      <point x="221" y="1297"/>
      <point x="222.2" y="1198.0" type="curve"/>
      <point x="59.53333333333333" y="1198.0" type="line"/>
      <point x="58" y="1385"/>
      <point x="152" y="1487"/>
      <point x="326.5333333333333" y="1487.0" type="curve" smooth="yes"/>
      <point x="490" y="1487"/>
      <point x="581" y="1404"/>
      <point x="580.5333333333333" y="1251.0" type="curve" smooth="yes"/>
      <point x="581" y="1178"/>
      <point x="531" y="1096"/>
      <point x="407.2" y="971.0" type="curve" smooth="yes"/>
      <point x="294.2" y="845.0" type="line"/>
      <point x="611.5333333333333" y="845.0" type="line"/>
      <point x="611.5333333333333" y="697.0" type="line"/>
    </contour>
  </outline>
</glyph>
<glyph name="OE" format="2">
  <advance width="1665"/>
  <unicode hex="0152"/>
  <outline>
    <contour>
      <point x="638.3333333333334" y="1477.0" type="curve" smooth="yes"/>
      <point x="682.5533333333334" y="1477.0"/>
      <point x="799.5533333333334" y="1466.72"/>
      <point x="889.3333333333334" y="1456.0" type="curve"/>
      <point x="1586.6" y="1456.0" type="line"/>
      <point x="1586.6" y="1303.3333333333333" type="line"/>
      <point x="994.7333333333333" y="1303.3333333333333" type="line"/>
      <point x="994.7333333333333" y="827.8666666666667" type="line"/>
      <point x="1494.6" y="827.8666666666667" type="line"/>
      <point x="1494.6" y="674.0666666666667" type="line"/>
      <point x="994.7333333333333" y="674.0666666666667" type="line"/>
      <point x="994.7333333333333" y="152.73333333333332" type="line"/>
      <point x="1596.6" y="152.73333333333332" type="line"/>
      <point x="1596.6" y="0.0" type="line"/>
      <point x="889.3333333333334" y="0.0" type="line"/>
      <point x="799.5533333333334" y="-9.38"/>
      <point x="699.1733333333334" y="-21.0"/>
      <point x="597.3333333333334" y="-21.0" type="curve" smooth="yes"/>
      <point x="310.57333333333327" y="-21.0"/>
      <point x="115.0" y="223.71999999999997"/>
      <point x="115.0" y="682.0" type="curve" smooth="yes"/>
      <point x="115.0" y="772.0" type="line" smooth="yes"/>
      <point x="115.0" y="1218.22"/>
      <point x="292.6133333333333" y="1477.0"/>
    </contour>
    <contour>
      <point x="299.3333333333333" y="682.0" type="line" smooth="yes"/>
      <point x="299.3333333333333" y="328.23999999999995"/>
      <point x="409.85333333333324" y="128.0"/>
      <point x="640.3333333333334" y="128.0" type="curve" smooth="yes"/>
      <point x="711.3533333333334" y="128.0"/>
      <point x="760.4133333333334" y="134.96"/>
      <point x="811.3333333333334" y="143.0" type="curve"/>
      <point x="811.3333333333334" y="1310.0" type="line"/>
      <point x="741.6533333333334" y="1319.38"/>
      <point x="671.8133333333334" y="1325.0"/>
      <point x="642.3333333333334" y="1325.0" type="curve" smooth="yes"/>
      <point x="405.1533333333333" y="1325.0"/>
      <point x="299.3333333333333" y="1117.04"/>
      <point x="299.3333333333333" y="774.0" type="curve" smooth="yes"/>
    </contour>
  </outline>
</glyph>
<glyph name="Delta" format="2">
  <advance width="1086"/>
  <unicode hex="0394"/>
  <outline>
    <contour>
      <point x="19.4" y="0.0" type="line"/>
      <point x="19.4" y="107.0" type="line"/>
      <point x="444.73333333333335" y="1466.0" type="line"/>
      <point x="640.2" y="1466.0" type="line"/>
      <point x="1066.5333333333333" y="107.0" type="line"/>
      <point x="1066.5333333333333" y="0.0" type="line"/>
    </contour>
    <contour>
      <point x="212.26666666666665" y="153.73333333333332" type="line"/>
      <point x="866.7333333333333" y="153.73333333333332" type="line"/>
      <point x="575.0" y="1108.5333333333333" type="line" smooth="yes"/>
      <point x="560.4386666666667" y="1154.1826666666666"/>
      <point x="553.4173333333333" y="1193.7426666666665"/>
      <point x="545.4666666666667" y="1236.5333333333333" type="curve"/>
      <point x="537.6" y="1236.5333333333333" type="line"/>
      <point x="529.6493333333333" y="1193.7426666666665"/>
      <point x="519.1546666666666" y="1154.1826666666666"/>
      <point x="505.93333333333334" y="1108.5333333333333" type="curve" smooth="yes"/>
    </contour>
  </outline>
</glyph>
<glyph name="Omega" format="2">
  <advance width="1099"/>
  <unicode hex="03A9"/>
  <anchor x="34.266666666666666" y="1456.0" name="GRK_topleft"/>
  <outline>
    <contour>
      <point x="17.933333333333337" y="0.0" type="line"/>
      <point x="17.933333333333337" y="152.6" type="line"/>
      <point x="303.0" y="152.6" type="line"/>
      <point x="303.0" y="323.93333333333334" type="line"/>
      <point x="122.54666666666662" y="407.0133333333333"/>
      <point x="17.933333333333337" y="565.6066666666666"/>
      <point x="17.933333333333337" y="845.6666666666666" type="curve"/>
      <point x="17.933333333333337" y="901.6666666666666" type="line"/>
      <point x="17.933333333333337" y="1276.8666666666668"/>
      <point x="225.74666666666667" y="1486.0"/>
      <point x="549.1333333333333" y="1486.0" type="curve"/>
      <point x="873.9493333333332" y="1486.0"/>
      <point x="1081.4" y="1276.8666666666668"/>
      <point x="1081.4" y="901.6666666666666" type="curve"/>
      <point x="1081.4" y="845.6666666666666" type="line"/>
      <point x="1081.4" y="565.6066666666666"/>
      <point x="975.72" y="407.0133333333333"/>
      <point x="795.2666666666667" y="323.93333333333334" type="curve"/>
      <point x="795.2666666666667" y="152.6" type="line"/>
      <point x="1081.4" y="152.6" type="line"/>
      <point x="1081.4" y="0.0" type="line"/>
      <point x="631.8" y="0.0" type="line"/>
      <point x="631.8" y="437.0" type="line"/>
      <point x="811.9853333333333" y="478.54"/>
      <point x="895.9333333333334" y="643.3266666666666"/>
      <point x="895.9333333333334" y="845.6666666666666" type="curve"/>
      <point x="895.9333333333334" y="901.6666666666666" type="line"/>
      <point x="895.9333333333334" y="1175.0266666666669"/>
      <point x="778.452" y="1327.3333333333333"/>
      <point x="549.1333333333333" y="1327.3333333333333" type="curve"/>
      <point x="319.81466666666665" y="1327.3333333333333"/>
      <point x="202.33333333333331" y="1175.0266666666669"/>
      <point x="202.33333333333331" y="901.6666666666666" type="curve"/>
      <point x="202.33333333333331" y="845.6666666666666" type="line"/>
      <point x="202.33333333333331" y="643.3266666666666"/>
      <point x="284.852" y="478.54"/>
      <point x="466.4666666666667" y="437.0" type="curve"/>
      <point x="466.4666666666667" y="0.0" type="line"/>
    </contour>
  </outline>
</glyph>
<glyph name="epsilon" format="2">
  <advance width="878"/>
  <unicode hex="03B5"/>
  <anchor x="454.0" y="1076.857142857143" name="GRK_top"/>
  <outline>
    <contour>
      <point x="436.3333333333333" y="-30.0" type="curve"/>
      <point x="191.20266666666666" y="-30.0"/>
      <point x="62.733333333333334" y="101.37714285714281"/>
      <point x="62.733333333333334" y="282.4047619047619" type="curve"/>
      <point x="62.733333333333334" y="439.8228571428572"/>
      <point x="136.18933333333334" y="532.2028571428572"/>
      <point x="299.1333333333333" y="548.8571428571429" type="curve"/>
      <point x="299.2" y="526.2142857142857" type="line"/>
      <point x="169.3093333333333" y="549.5685714285714"/>
      <point x="95.33333333333334" y="639.3071428571428"/>
      <point x="95.33333333333334" y="773.7857142857143" type="curve"/>
      <point x="95.33333333333334" y="962.7257142857143"/>
      <point x="218.09199999999996" y="1106.0714285714287"/>
      <point x="463.1333333333333" y="1106.0714285714287" type="curve" smooth="yes"/>
      <point x="719.9666666666667" y="1106.0714285714287"/>
      <point x="835.2293333333333" y="944.9140000000001"/>
      <point x="833.8" y="730.5714285714286" type="curve"/>
      <point x="663.1190476190476" y="730.5714285714286" type="line"/>
      <point x="663.1190476190476" y="861.4128571428571"/>
      <point x="615.4466666666666" y="958.0571428571428"/>
      <point x="463.1333333333333" y="958.0571428571428" type="curve" smooth="yes"/>
      <point x="341.01466666666664" y="958.0571428571428"/>
      <point x="278.14761904761906" y="883.5988571428571"/>
      <point x="278.14761904761906" y="774.7142857142857" type="curve"/>
      <point x="278.14761904761906" y="670.6983809523811"/>
      <point x="326.06533333333334" y="609.8714285714286"/>
      <point x="451.4" y="609.8714285714286" type="curve" smooth="yes"/>
      <point x="586.7333333333333" y="609.8714285714286" type="line"/>
      <point x="586.7333333333333" y="472.33809523809526" type="line"/>
      <point x="451.4" y="472.33809523809526" type="line" smooth="yes"/>
      <point x="286.22266666666667" y="472.33809523809526"/>
      <point x="245.48095238095237" y="404.1223809523809"/>
      <point x="245.48095238095237" y="301.35714285714283" type="curve" smooth="yes"/>
      <point x="245.48095238095237" y="195.01857142857142"/>
      <point x="284.72933333333333" y="117.94761904761904"/>
      <point x="446.3333333333333" y="117.94761904761904" type="curve"/>
      <point x="604.4533333333334" y="117.94761904761904"/>
      <point x="662.3333333333334" y="209.43980952380952"/>
      <point x="662.3333333333334" y="346.2857142857143" type="curve"/>
      <point x="833.8" y="346.2857142857143" type="line"/>
      <point x="833.8" y="127.636"/>
      <point x="701.3853333333334" y="-30.0"/>
    </contour>
  </outline>
</glyph>
<glyph name="iota" format="2">
  <advance width="545"/>
  <unicode hex="03B9"/>
  <anchor x="238.93333333333334" y="1076.857142857143" name="GRK_top"/>
  <outline>
    <contour>
      <point x="360.1333333333333" y="-30.0" type="curve" smooth="yes"/>
      <point x="224.61466666666666" y="-30.0"/>
      <point x="138.0" y="59.0"/>
      <point x="138.0" y="260.0" type="curve" smooth="yes"/>
      <point x="138.0" y="1076.857142857143" type="line"/>
      <point x="315.46666666666664" y="1076.857142857143" type="line"/>
      <point x="315.46666666666664" y="252.53333333333333" type="line" smooth="yes"/>
      <point x="315.46666666666664" y="150.15733333333333"/>
      <point x="342.25600000000003" y="124.66666666666667"/>
      <point x="406.93333333333334" y="124.66666666666667" type="curve" smooth="yes"/>
      <point x="437.3066666666667" y="124.66666666666667"/>
      <point x="464.16" y="130.792"/>
      <point x="494.5333333333333" y="141.33333333333334" type="curve"/>
      <point x="494.5333333333333" y="0.0" type="line"/>
      <point x="465.4106666666667" y="-16.080000000000002"/>
      <point x="417.12800000000004" y="-30.0"/>
    </contour>
  </outline>
</glyph>
<glyph name="chi" format="2">
  <advance width="892"/>
  <unicode hex="03C7"/>
  <outline>
    <contour>
      <point x="684.0666666666666" y="-416.0" type="line"/>
      <point x="407.06666666666666" y="282.85714285714283" type="line"/>
      <point x="399.2" y="282.85714285714283" type="line"/>
      <point x="53.4" y="1076.857142857143" type="line"/>
      <point x="241.86666666666667" y="1076.857142857143" type="line"/>
      <point x="511.73333333333335" y="430.85714285714283" type="line"/>
      <point x="520.6666666666666" y="430.85714285714283" type="line"/>
      <point x="873.6" y="-416.0" type="line"/>
    </contour>
    <contour>
      <point x="19.8" y="-416.0" type="line"/>
      <point x="407.93333333333334" y="450.85714285714283" type="line"/>
      <point x="419.8" y="450.85714285714283" type="line"/>
      <point x="671.2666666666667" y="1076.857142857143" type="line"/>
      <point x="859.3333333333334" y="1076.857142857143" type="line"/>
      <point x="511.8" y="295.85714285714283" type="line"/>
      <point x="501.6666666666667" y="295.85714285714283" type="line"/>
      <point x="207.86666666666667" y="-416.0" type="line"/>
    </contour>
  </outline>
</glyph>
<glyph name="El" format="2">
  <advance width="1282"/>
  <unicode hex="041B"/>
  <outline>
    <contour>
      <point x="289.93333333333334" y="1456.0" type="line"/>
      <point x="1111.6" y="1456.0" type="line"/>
      <point x="1111.6" y="0.0" type="line"/>
      <point x="928.1333333333333" y="0.0" type="line"/>
      <point x="928.1333333333333" y="1302.2666666666667" type="line"/>
      <point x="453.4666666666667" y="1302.2666666666667" type="line"/>
      <point x="416.8" y="542.0" type="line" smooth="yes"/>
      <point x="399.648" y="170.01599999999996"/>
      <point x="337.232" y="-16.133333333333333"/>
      <point x="103.0" y="-16.133333333333333" type="curve" smooth="yes"/>
      <point x="75.128" y="-16.133333333333333"/>
      <point x="43.14266666666667" y="-12.533333333333333"/>
      <point x="10.0" y="0.8666666666666671" type="curve"/>
      <point x="10.0" y="168.06666666666666" type="line"/>
      <point x="37.872" y="157.34666666666666"/>
      <point x="58.348000000000006" y="155.06666666666666"/>
      <point x="82.2" y="155.06666666666666" type="curve" smooth="yes"/>
      <point x="198.86933333333332" y="155.06666666666666"/>
      <point x="233.83866666666665" y="267.604"/>
      <point x="248.4" y="575.0" type="curve" smooth="yes"/>
    </contour>
  </outline>
</glyph>
<glyph name="Sha" format="2">
  <advance width="1897"/>
  <unicode hex="0428"/>
  <outline>
    <contour>
      <point x="170.0" y="1456.0" type="line"/>
      <point x="353.46666666666664" y="1456.0" type="line"/>
      <point x="353.46666666666664" y="153.73333333333332" type="line"/>
      <point x="856.8" y="153.73333333333332" type="line"/>
      <point x="856.8" y="1456.0" type="line"/>
      <point x="1040.2666666666667" y="1456.0" type="line"/>
      <point x="1040.2666666666667" y="153.73333333333332" type="line"/>
      <point x="1543.6" y="153.73333333333332" type="line"/>
      <point x="1543.6" y="1456.0" type="line"/>
      <point x="1727.0666666666666" y="1456.0" type="line"/>
      <point x="1727.0666666666666" y="0.0" type="line"/>
      <point x="170.0" y="0.0" type="line"/>
    </contour>
  </outline>
</glyph>
<glyph name="icyr" format="2">
  <advance width="1029"/>
  <unicode hex="0438"/>
  <outline>
    <contour>
      <point x="325.46666666666664" y="435.0" type="line" smooth="yes"/>
      <point x="325.46666666666664" y="394.8"/>
      <point x="324.8066666666666" y="340.2"/>
      <point x="323.46666666666664" y="300.0" type="curve"/>
      <point x="330.46666666666664" y="300.0" type="line"/>
      <point x="347.7973333333333" y="332.0706666666667"/>
      <point x="363.428" y="372.03066666666666"/>
      <point x="384.6" y="415.0" type="curve" smooth="yes"/>
      <point x="703.4666666666667" y="1052.0" type="line"/>
      <point x="880.9333333333334" y="1052.0" type="line"/>
      <point x="880.9333333333334" y="0.0" type="line"/>
      <point x="703.4666666666667" y="0.0" type="line"/>
      <point x="703.4666666666667" y="617.0666666666667" type="line" smooth="yes"/>
      <point x="703.4666666666667" y="657.2666666666668"/>
      <point x="704.1266666666667" y="711.8666666666667"/>
      <point x="705.4666666666667" y="752.0666666666667" type="curve"/>
      <point x="698.4666666666667" y="752.0666666666667" type="line"/>
      <point x="681.136" y="719.996"/>
      <point x="665.5053333333333" y="680.036"/>
      <point x="644.3333333333334" y="637.0666666666667" type="curve" smooth="yes"/>
      <point x="325.46666666666664" y="0.0" type="line"/>
      <point x="148.0" y="0.0" type="line"/>
      <point x="148.0" y="1052.0" type="line"/>
      <point x="325.46666666666664" y="1052.0" type="line"/>
    </contour>
  </outline>
</glyph>
<glyph name="em" format="2">
  <advance width="1311"/>
  <unicode hex="043C"/>
  <outline>
    <contour>
      <point x="148.0" y="0.0" type="line"/>
      <point x="148.0" y="1052.0" type="line"/>
      <point x="397.73333333333335" y="1052.0" type="line"/>
      <point x="617.4" y="327.0" type="line" smooth="yes"/>
      <point x="640.984" y="250.70933333333332"/>
      <point x="645.1666666666666" y="232.16"/>
      <point x="651.8666666666667" y="200.0" type="curve"/>
      <point x="661.8666666666667" y="200.0" type="line"/>
      <point x="668.5666666666667" y="232.16"/>
      <point x="671.7493333333333" y="248.53066666666666"/>
      <point x="695.3333333333334" y="325.0" type="curve" smooth="yes"/>
      <point x="917.0" y="1052.0" type="line"/>
      <point x="1162.8" y="1052.0" type="line"/>
      <point x="1162.8" y="0.0" type="line"/>
      <point x="989.0" y="0.0" type="line"/>
      <point x="989.0" y="716.0" type="line" smooth="yes"/>
      <point x="989.0" y="795.06"/>
      <point x="991.32" y="819.2"/>
      <point x="994.0" y="846.0" type="curve"/>
      <point x="985.0" y="846.0" type="line"/>
      <point x="978.3" y="819.2"/>
      <point x="971.6213333333333" y="793.9506666666666"/>
      <point x="949.4666666666667" y="719.0" type="curve" smooth="yes"/>
      <point x="731.8666666666667" y="0.0" type="line"/>
      <point x="571.8666666666667" y="0.0" type="line"/>
      <point x="350.06666666666666" y="722.0" type="line" smooth="yes"/>
      <point x="329.0733333333333" y="788.9106666666667"/>
      <point x="326.43333333333334" y="819.2"/>
      <point x="319.73333333333335" y="846.0" type="curve"/>
      <point x="309.73333333333335" y="846.0" type="line"/>
      <point x="312.41333333333336" y="819.2"/>
      <point x="314.73333333333335" y="794.02"/>
      <point x="314.73333333333335" y="723.0" type="curve" smooth="yes"/>
      <point x="314.73333333333335" y="0.0" type="line"/>
    </contour>
  </outline>
</glyph>
<glyph name="ef" format="2">
  <advance width="1251"/>
  <unicode hex="0444"/>
  <outline>
    <contour>
      <point x="266.46666666666664" y="478.0" type="line" smooth="yes"/>
      <point x="266.46666666666664" y="257.168"/>
      <point x="358.9133333333333" y="131.13333333333333"/>
      <point x="537.1333333333333" y="117.73333333333333" type="curve"/>
      <point x="537.1333333333333" y="934.2666666666667" type="line"/>
      <point x="347.4786666666667" y="920.8666666666667"/>
      <point x="266.46666666666664" y="794.832"/>
      <point x="266.46666666666664" y="574.0" type="curve" smooth="yes"/>
    </contour>
    <contour>
      <point x="985.2666666666667" y="574.0" type="line" smooth="yes"/>
      <point x="985.2666666666667" y="794.832"/>
      <point x="892.82" y="920.8666666666667"/>
      <point x="714.6" y="934.2666666666667" type="curve"/>
      <point x="714.6" y="117.73333333333333" type="line"/>
      <point x="904.2546666666667" y="131.13333333333333"/>
      <point x="985.2666666666667" y="257.168"/>
      <point x="985.2666666666667" y="478.0" type="curve" smooth="yes"/>
    </contour>
    <contour>
      <point x="537.1333333333333" y="-30.0" type="line"/>
      <point x="262.43333333333334" y="-16.6"/>
      <point x="85.0" y="162.94"/>
      <point x="85.0" y="510.0" type="curve" smooth="yes"/>
      <point x="85.0" y="542.0" type="line" smooth="yes"/>
      <point x="85.0" y="889.06"/>
      <point x="262.43333333333334" y="1068.6"/>
      <point x="537.1333333333333" y="1082.0" type="curve"/>
      <point x="537.1333333333333" y="1536.0" type="line"/>
      <point x="714.6" y="1536.0" type="line"/>
      <point x="714.6" y="1082.0" type="line"/>
      <point x="989.3" y="1068.6"/>
      <point x="1166.7333333333333" y="889.06"/>
      <point x="1166.7333333333333" y="542.0" type="curve" smooth="yes"/>
      <point x="1166.7333333333333" y="510.0" type="line" smooth="yes"/>
      <point x="1166.7333333333333" y="162.94"/>
      <point x="989.3" y="-16.6"/>
      <point x="714.6" y="-30.0" type="curve"/>
      <point x="714.6" y="-416.0" type="line"/>
      <point x="537.1333333333333" y="-416.0" type="line"/>
    </contour>
  </outline>
</glyph>
<glyph name="tse" format="2">
  <advance width="1014"/>
  <unicode hex="0446"/>
  <outline>
    <contour>
      <point x="148.0" y="0.0" type="line"/>
      <point x="148.0" y="1052.0" type="line"/>
      <point x="325.46666666666664" y="1052.0" type="line"/>
      <point x="325.46666666666664" y="145.0" type="line"/>
      <point x="683.0666666666666" y="145.0" type="line"/>
      <point x="683.0666666666666" y="1052.0" type="line"/>
      <point x="860.5333333333333" y="1052.0" type="line"/>
      <point x="860.5333333333333" y="145.0" type="line"/>
      <point x="988.8666666666667" y="145.0" type="line"/>
      <point x="988.8666666666667" y="-270.0" type="line"/>
      <point x="820.8666666666667" y="-270.0" type="line"/>
      <point x="820.8666666666667" y="0.0" type="line"/>
    </contour>
  </outline>
</glyph>
<glyph name="che" format="2">
  <advance width="976"/>
  <unicode hex="0447"/>
  <guideline x="855.0" y="515.0" angle="90.0" identifier="GGEFes61Q6"/>
  <outline>
    <contour>
      <point x="307.8" y="773.0" type="line" smooth="yes"/>
      <point x="307.8" y="594.6013333333333"/>
      <point x="357.98266666666666" y="542.0"/>
      <point x="499.93333333333334" y="542.0" type="curve" smooth="yes"/>
      <point x="594.8946666666666" y="542.0"/>
      <point x="643.7493333333333" y="549.8746666666666"/>
      <point x="738.8" y="575.0666666666667" type="curve"/>
      <point x="738.8" y="429.06666666666666" type="line"/>
      <point x="643.4813333333333" y="409.32399999999996"/>
      <point x="587.4906666666667" y="396.0"/>
      <point x="479.93333333333334" y="396.0" type="curve" smooth="yes"/>
      <point x="227.29866666666663" y="396.0"/>
      <point x="130.33333333333334" y="508.39466666666664"/>
      <point x="130.33333333333334" y="773.0" type="curve" smooth="yes"/>
      <point x="130.33333333333334" y="1052.0" type="line"/>
      <point x="307.8" y="1052.0" type="line"/>
    </contour>
    <contour>
      <point x="827.5333333333333" y="1052.0" type="line"/>
      <point x="827.5333333333333" y="0.0" type="line"/>
      <point x="650.0666666666666" y="0.0" type="line"/>
      <point x="650.0666666666666" y="1052.0" type="line"/>
    </contour>
  </outline>
</glyph>
<glyph name="ya" format="2">
  <advance width="1035"/>
  <unicode hex="044F"/>
  <outline>
    <contour>
      <point x="307.1333333333333" y="0.0" type="line"/>
      <point x="103.13333333333333" y="0.0" type="line"/>
      <point x="386.4666666666667" y="454.0" type="line"/>
      <point x="571.4666666666667" y="437.0" type="line"/>
    </contour>
    <contour>
      <point x="709.4" y="0.0" type="line"/>
      <point x="709.4" y="379.73333333333335" type="line"/>
      <point x="516.6" y="379.73333333333335" type="line"/>
      <point x="519.9333333333333" y="385.3333333333333" type="line"/>
      <point x="281.324" y="396.76800000000003"/>
      <point x="149.93333333333334" y="519.7453333333333"/>
      <point x="149.93333333333334" y="713.8666666666667" type="curve" smooth="yes"/>
      <point x="149.93333333333334" y="920.3159999999999"/>
      <point x="294.01733333333334" y="1052.0"/>
      <point x="554.0666666666666" y="1052.0" type="curve" smooth="yes"/>
      <point x="886.8666666666667" y="1052.0" type="line"/>
      <point x="886.8666666666667" y="0.0" type="line"/>
    </contour>
    <contour>
      <point x="554.0666666666666" y="524.7333333333333" type="curve" smooth="yes"/>
      <point x="709.4" y="524.7333333333333" type="line"/>
      <point x="709.4" y="907.0" type="line"/>
      <point x="554.0666666666666" y="907.0" type="line" smooth="yes"/>
      <point x="386.03066666666666" y="907.0"/>
      <point x="327.4" y="826.4715774134758"/>
      <point x="327.4" y="713.8666666666667" type="curve" smooth="yes"/>
      <point x="327.4" y="602.6047448789587"/>
      <point x="386.12" y="524.7333333333333"/>
    </contour>
  </outline>
</glyph>
<glyph name="lje" format="2">
  <advance width="1461"/>
  <unicode hex="0459"/>
  <outline>
    <contour>
      <point x="831.1333333333333" y="1052.0" type="line"/>
      <point x="831.1333333333333" y="681.3333333333334" type="line"/>
      <point x="987.8" y="681.3333333333334" type="line" smooth="yes"/>
      <point x="1247.4026666666666" y="681.3333333333334"/>
      <point x="1391.2666666666667" y="551.528"/>
      <point x="1391.2666666666667" y="342.6666666666667" type="curve" smooth="yes"/>
      <point x="1391.2666666666667" y="133.80533333333332"/>
      <point x="1247.4026666666666" y="0.0"/>
      <point x="987.8" y="0.0" type="curve" smooth="yes"/>
      <point x="653.6666666666666" y="0.0" type="line"/>
      <point x="653.6666666666666" y="907.0" type="line"/>
      <point x="358.5333333333333" y="907.0" type="line"/>
      <point x="343.73333333333335" y="389.73333333333335" type="line" smooth="yes"/>
      <point x="337.65866666666665" y="169.7053333333333"/>
      <point x="302.30400000000003" y="-17.733333333333334"/>
      <point x="107.2" y="-17.733333333333334" type="curve" smooth="yes"/>
      <point x="57.352" y="-17.733333333333334"/>
      <point x="34.03066666666667" y="-10.364"/>
      <point x="10.0" y="0.2666666666666666" type="curve"/>
      <point x="10.0" y="156.26666666666668" type="line"/>
      <point x="31.35066666666667" y="146.88666666666668"/>
      <point x="42.653333333333336" y="143.26666666666668"/>
      <point x="72.13333333333333" y="143.26666666666668" type="curve" smooth="yes"/>
      <point x="150.836" y="143.26666666666668"/>
      <point x="176.64933333333335" y="255.67599999999996"/>
      <point x="180.13333333333333" y="392.26666666666665" type="curve" smooth="yes"/>
      <point x="198.86666666666667" y="1052.0" type="line"/>
    </contour>
    <contour>
      <point x="987.8" y="536.3333333333334" type="curve" smooth="yes"/>
      <point x="831.1333333333333" y="536.3333333333334" type="line"/>
      <point x="831.1333333333333" y="145.0" type="line"/>
      <point x="987.8" y="145.0" type="line" smooth="yes"/>
      <point x="1155.3" y="145.0"/>
      <point x="1213.8" y="227.60533333333333"/>
      <point x="1213.8" y="342.6666666666667" type="curve" smooth="yes"/>
      <point x="1213.8" y="456.38800000000003"/>
      <point x="1155.3" y="536.3333333333334"/>
    </contour>
  </outline>
</glyph>
<glyph name="Kadescender" format="2">
  <advance width="1129"/>
  <unicode hex="049A"/>
  <outline>
    <contour>
      <point x="261.73333333333335" y="830.0" type="line"/>
      <point x="466.1333333333333" y="830.0" type="line"/>
      <point x="879.9333333333334" y="1456.0" type="line"/>
      <point x="1084.1333333333332" y="1456.0" type="line"/>
      <point x="559.0666666666667" y="672.0" type="line"/>
      <point x="261.73333333333335" y="672.0" type="line"/>
    </contour>
    <contour>
      <point x="914.5333333333333" y="0.0" type="line"/>
      <point x="420.93333333333334" y="740.0" type="line"/>
      <point x="576.6666666666666" y="823.0" type="line"/>
      <point x="1129.2" y="0.0" type="line"/>
    </contour>
    <contour>
      <point x="170.0" y="0.0" type="line"/>
      <point x="170.0" y="1456.0" type="line"/>
      <point x="353.46666666666664" y="1456.0" type="line"/>
      <point x="353.46666666666664" y="0.0" type="line"/>
    </contour>
    <contour>
      <point x="914.5333333333333" y="0.0" type="line"/>
      <point x="914.5333333333333" y="153.73333333333332" type="line"/>
      <point x="1173.4666666666667" y="153.73333333333332" type="line"/>
      <point x="1173.4666666666667" y="-290.0" type="line"/>
      <point x="1001.4666666666667" y="-290.0" type="line"/>
      <point x="1001.4666666666667" y="0.0" type="line"/>
    </contour>
  </outline>
</glyph>
<glyph name="kadescender" format="2">
  <advance width="891"/>
  <unicode hex="049B"/>
  <outline>
    <contour>
      <point x="704.1333333333333" y="0.0" type="line"/>
      <point x="391.8" y="477.0" type="line"/>
      <point x="503.6666666666667" y="603.0" type="line"/>
      <point x="841.7333333333333" y="92.73333333333333" type="line"/>
      <point x="841.7333333333333" y="0.0" type="line"/>
    </contour>
    <contour>
      <point x="236.73333333333332" y="610.0" type="line"/>
      <point x="400.8" y="610.0" type="line"/>
      <point x="679.1333333333333" y="1052.0" type="line"/>
      <point x="865.1333333333333" y="1052.0" type="line"/>
      <point x="488.8" y="465.0" type="line"/>
      <point x="236.73333333333332" y="465.0" type="line"/>
    </contour>
    <contour>
      <point x="325.46666666666664" y="1052.0" type="line"/>
      <point x="325.46666666666664" y="0.0" type="line"/>
      <point x="148.0" y="0.0" type="line"/>
      <point x="148.0" y="1052.0" type="line"/>
    </contour>
    <contour>
      <point x="704.1333333333333" y="145.0" type="line"/>
      <point x="915.5333333333333" y="145.0" type="line"/>
      <point x="915.5333333333333" y="-270.0" type="line"/>
      <point x="747.5333333333333" y="-270.0" type="line"/>
      <point x="747.5333333333333" y="0.0" type="line"/>
      <point x="704.1333333333333" y="0.0" type="line"/>
    </contour>
  </outline>
</glyph>
<glyph name="Kaverticalstrokecyr" format="2">
  <advance width="1439"/>
  <unicode hex="049C"/>
  <guideline x="637.0" y="675.0" angle="90.0" identifier="5CJVZV5P4J"/>
  <outline>
    <contour>
      <point x="170.0" y="0.0" type="line"/>
      <point x="170.0" y="1456.0" type="line"/>
      <point x="353.46666666666664" y="1456.0" type="line"/>
      <point x="353.46666666666664" y="0.0" type="line"/>
    </contour>
    <contour>
      <point x="1222.2" y="0.0" type="line"/>
      <point x="767.9333333333334" y="740.0" type="line"/>
      <point x="930.0666666666666" y="823.0" type="line"/>
      <point x="1437.3333333333333" y="0.0" type="line"/>
    </contour>
    <contour>
      <point x="612.4666666666667" y="830.0" type="line"/>
      <point x="813.1333333333333" y="830.0" type="line"/>
      <point x="1187.6" y="1456.0" type="line"/>
      <point x="1389.0666666666666" y="1456.0" type="line"/>
      <point x="913.5333333333333" y="672.0" type="line"/>
      <point x="612.4666666666667" y="672.0" type="line"/>
    </contour>
    <contour>
      <point x="532.8" y="300.0" type="line"/>
      <point x="532.8" y="1156.0" type="line"/>
      <point x="692.1333333333333" y="1156.0" type="line"/>
      <point x="692.1333333333333" y="300.0" type="line"/>
    </contour>
  </outline>
</glyph>
<glyph name="coloncurrency" format="2">
  <advance width="1158"/>
  <unicode hex="20A1"/>
  <guideline x="0" y="1570.0" angle="0" identifier="0DwZ2nfhdf"/>
  <outline>
    <contour>
      <point x="951.3333333333334" y="1570.0" type="line"/>
      <point x="912.3333333333334" y="1324.0" type="line"/>
      <point x="899.3333333333334" y="1301.0" type="line"/>
      <point x="727.3333333333334" y="68.0" type="line"/>
      <point x="733.3333333333334" y="43.0" type="line"/>
      <point x="709.3333333333334" y="-125.0" type="line"/>
      <point x="550.3333333333334" y="-125.0" type="line"/>
      <point x="573.3333333333334" y="40.0" type="line"/>
      <point x="587.3333333333334" y="66.0" type="line"/>
      <point x="772.3333333333334" y="1361.0" type="line"/>
      <point x="765.3333333333334" y="1381.0" type="line"/>
      <point x="793.3333333333334" y="1570.0" type="line"/>
    </contour>
    <contour>
      <point x="700.6666666666666" y="1570.0" type="line"/>
      <point x="675.6666666666666" y="1395.0" type="line"/>
      <point x="662.6666666666666" y="1374.0" type="line"/>
      <point x="475.6666666666667" y="66.0" type="line"/>
      <point x="481.6666666666667" y="39.0" type="line"/>
      <point x="458.6666666666667" y="-125.0" type="line"/>
      <point x="299.6666666666667" y="-125.0" type="line"/>
      <point x="334.6666666666667" y="122.0" type="line"/>
      <point x="348.6666666666667" y="148.0" type="line"/>
      <point x="524.6666666666666" y="1376.0" type="line"/>
      <point x="517.6666666666666" y="1399.0" type="line"/>
      <point x="542.6666666666666" y="1570.0" type="line"/>
    </contour>
    <contour>
      <point x="117.0" y="686.6666666666666" type="curve" smooth="yes"/>
      <point x="117.0" y="769.3333333333334" type="line" smooth="yes"/>
      <point x="117.0" y="1261.9173333333333"/>
      <point x="322.0106666666667" y="1486.0"/>
      <point x="637.0" y="1486.0" type="curve" smooth="yes"/>
      <point x="933.3186666666667" y="1486.0"/>
      <point x="1107.0" y="1294.5453333333335"/>
      <point x="1107.0" y="997.3333333333334" type="curve" smooth="yes"/>
      <point x="1107.0" y="990.0" type="line"/>
      <point x="922.8666666666667" y="990.0" type="line"/>
      <point x="922.8666666666667" y="997.2666666666667" type="line" smooth="yes"/>
      <point x="922.8666666666667" y="1170.9306666666666"/>
      <point x="851.132" y="1326.6666666666667"/>
      <point x="637.0" y="1326.6666666666667" type="curve" smooth="yes"/>
      <point x="412.7733333333333" y="1326.6666666666667"/>
      <point x="301.93333333333334" y="1160.3053333333335"/>
      <point x="301.93333333333334" y="813.0666666666667" type="curve" smooth="yes"/>
      <point x="301.93333333333334" y="645.3333333333334" type="line" smooth="yes"/>
      <point x="301.93333333333334" y="312.20933333333335"/>
      <point x="432.48" y="130.0"/>
      <point x="635.2666666666667" y="130.0" type="curve" smooth="yes"/>
      <point x="826.5293333333334" y="130.0"/>
      <point x="913.9573333333333" y="295.36400000000003"/>
      <point x="922.5333333333333" y="458.93333333333334" type="curve"/>
      <point x="922.5333333333333" y="466.0" type="line"/>
      <point x="1106.3333333333333" y="466.0" type="line"/>
      <point x="1106.3333333333333" y="458.0" type="line" smooth="yes"/>
      <point x="1106.3333333333333" y="160.07333333333332"/>
      <point x="932.652" y="-30.0"/>
      <point x="636.3333333333334" y="-30.0" type="curve" smooth="yes"/>
      <point x="318.93199999999996" y="-30.0"/>
      <point x="117.0" y="200.69333333333333"/>
    </contour>
  </outline>
</glyph>
<glyph name="uni20B2" format="2">
  <advance width="981"/>
  <unicode hex="20B2"/>
  <outline>
    <contour>
      <point x="461.93333333333334" y="-190.0" type="line"/>
      <point x="461.93333333333334" y="57.0" type="line"/>
      <point x="479.93333333333334" y="71.0" type="line"/>
      <point x="479.93333333333334" y="708.0" type="line"/>
      <point x="601.4" y="708.0" type="line"/>
      <point x="601.4" y="70.0" type="line"/>
      <point x="623.4" y="60.0" type="line"/>
      <point x="623.4" y="-190.0" type="line"/>
    </contour>
    <contour>
      <point x="479.93333333333334" y="708.0" type="line"/>
      <point x="479.93333333333334" y="1342.0" type="line"/>
      <point x="464.93333333333334" y="1352.0" type="line"/>
      <point x="464.93333333333334" y="1582.0" type="line"/>
      <point x="616.4" y="1582.0" type="line"/>
      <point x="616.4" y="1352.0" type="line"/>
      <point x="601.4" y="1339.0" type="line"/>
      <point x="601.4" y="708.0" type="line"/>
    </contour>
    <contour>
      <point x="952.3333333333334" y="725.0" type="line"/>
      <point x="952.3333333333334" y="452.0" type="line" smooth="yes"/>
      <point x="952.3333333333334" y="193.38"/>
      <point x="794.8866666666667" y="-5.0"/>
      <point x="549.6666666666666" y="-5.0" type="curve" smooth="yes"/>
      <point x="253.5266666666667" y="-5.0"/>
      <point x="94.0" y="201.64"/>
      <point x="94.0" y="542.0" type="curve" smooth="yes"/>
      <point x="94.0" y="897.0" type="line" smooth="yes"/>
      <point x="94.0" y="1297.66"/>
      <point x="261.0066666666667" y="1485.0"/>
      <point x="527.6666666666666" y="1485.0" type="curve" smooth="yes"/>
      <point x="766.1866666666666" y="1485.0"/>
      <point x="882.0133333333333" y="1365.5"/>
      <point x="946.3333333333334" y="1265.0" type="curve"/>
      <point x="830.3333333333334" y="1131.0" type="line"/>
      <point x="756.6333333333333" y="1228.82"/>
      <point x="691.1066666666666" y="1309.0"/>
      <point x="535.6666666666666" y="1309.0" type="curve" smooth="yes"/>
      <point x="358.7866666666667" y="1309.0"/>
      <point x="288.0" y="1184.42"/>
      <point x="288.0" y="899.0" type="curve" smooth="yes"/>
      <point x="288.0" y="544.0" type="line" smooth="yes"/>
      <point x="288.0" y="296.1"/>
      <point x="362.6666666666667" y="142.0"/>
      <point x="563.6666666666666" y="142.0" type="curve" smooth="yes"/>
      <point x="680.2466666666667" y="142.0"/>
      <point x="766.04" y="253.44"/>
      <point x="780.3333333333334" y="433.0" type="curve" smooth="yes"/>
      <point x="780.3333333333334" y="573.2666666666667" type="line"/>
      <point x="653.3333333333334" y="573.2666666666667" type="line"/>
      <point x="653.3333333333334" y="725.0" type="line"/>
    </contour>
  </outline>
</glyph>
<glyph name="notequal" format="2">
  <advance width="1024"/>
  <unicode hex="2260"/>
  <outline>
    <contour>
      <point x="813.6666666666666" y="1171.4" type="line"/>
      <point x="681.6666666666666" y="881.2666666666667" type="line"/>
      <point x="657.8666666666667" y="850.1333333333333" type="line"/>
      <point x="475.8666666666667" y="462.06666666666666" type="line"/>
      <point x="474.0" y="438.06666666666666" type="line"/>
      <point x="324.2" y="118.86666666666667" type="line"/>
      <point x="188.33333333333331" y="178.6" type="line"/>
      <point x="303.5333333333333" y="424.6" type="line"/>
      <point x="324.4" y="448.73333333333335" type="line"/>
      <point x="500.46666666666664" y="823.7333333333333" type="line"/>
      <point x="508.26666666666665" y="860.8" type="line"/>
      <point x="677.8" y="1231.1333333333334" type="line"/>
    </contour>
    <contour>
      <point x="162.6" y="382.06666666666666" type="line"/>
      <point x="162.6" y="540.4" type="line"/>
      <point x="901.9333333333334" y="540.4" type="line"/>
      <point x="901.9333333333334" y="382.06666666666666" type="line"/>
    </contour>
    <contour>
      <point x="162.6" y="785.6" type="line"/>
      <point x="162.6" y="943.9333333333333" type="line"/>
      <point x="901.9333333333334" y="943.9333333333333" type="line"/>
      <point x="901.9333333333334" y="785.6" type="line"/>
    </contour>
  </outline>
</glyph>
<glyph name="leftanglebracket" format="2">
  <advance width="601"/>
  <unicode hex="27E8"/>
  <outline>
    <contour>
      <point x="2.133333333333333" y="536.0" type="line"/>
      <point x="2.133333333333333" y="665.0" type="line"/>
      <point x="497.4666666666667" y="1499.0" type="line"/>
      <point x="599.8" y="1413.0" type="line"/>
      <point x="182.46666666666667" y="604.0" type="line"/>
      <point x="598.8" y="-219.0" type="line"/>
      <point x="497.4666666666667" y="-304.0" type="line"/>
    </contour>
  </outline>
</glyph>
<glyph name="breve.cyr.case" format="2">
  <advance width="1024"/>
  <outline>
    <contour>
      <point x="512.0" y="1788.0" type="curve" smooth="yes"/>
      <point x="632.6494334650324" y="1788.0"/>
      <point x="703.6381599795329" y="1832.2508139757654"/>
      <point x="754.3333333333334" y="1979.0" type="curve"/>
      <point x="903.3333333333334" y="1889.0" type="line"/>
      <point x="827.2605734153642" y="1710.1622837017771"/>
      <point x="681.5777777777366" y="1640.0"/>
      <point x="512.0" y="1640.0" type="curve" smooth="yes"/>
      <point x="342.4222222222635" y="1640.0"/>
      <point x="195.41377058311895" y="1710.1408584858004"/>
      <point x="120.66666666666667" y="1889.0" type="curve"/>
      <point x="269.6666666666667" y="1979.0" type="line"/>
      <point x="319.0345350794134" y="1833.5649281895146"/>
      <point x="391.3505665349674" y="1788.0"/>
    </contour>
  </outline>
</glyph>
<glyph name="dollar.rvrn" format="2">
  <advance width="1070"/>
  <outline>
    <contour>
      <point x="109.38571428571427" y="419.42857142857144" type="curve" smooth="yes"/>
      <point x="109.38571428571427" y="431.70952380952383" type="line"/>
      <point x="286.81904761904764" y="431.70952380952383" type="line"/>
      <point x="286.81904761904764" y="419.42857142857144" type="line" smooth="yes"/>
      <point x="286.81904761904764" y="235.17857142857144"/>
      <point x="382.6142857142857" y="156.88095238095238"/>
      <point x="546.9238095238095" y="156.88095238095238" type="curve" smooth="yes"/>
      <point x="714.1813333333333" y="156.88095238095238"/>
      <point x="801.1619047619048" y="247.13942857142857"/>
      <point x="801.1619047619048" y="400.01428571428573" type="curve" smooth="yes"/>
      <point x="801.1619047619048" y="519.4784761904762"/>
      <point x="749.8741904761905" y="590.6433333333332"/>
      <point x="498.2285714285714" y="667.4380952380952" type="curve" smooth="yes"/>
      <point x="270.7922857142857" y="737.7498095238095"/>
      <point x="123.73333333333333" y="853.4875238095237"/>
      <point x="123.73333333333333" y="1071.6714285714286" type="curve" smooth="yes"/>
      <point x="123.73333333333333" y="1304.5379047619049"/>
      <point x="294.2061904761905" y="1455.4380952380952"/>
      <point x="537.9904761904762" y="1455.4380952380952" type="curve" smooth="yes"/>
      <point x="792.8329523809524" y="1455.4380952380952"/>
      <point x="952.5142857142857" y="1287.0649523809525"/>
      <point x="952.5142857142857" y="1043.9761904761904" type="curve" smooth="yes"/>
      <point x="952.5142857142857" y="1031.695238095238" type="line"/>
      <point x="775.0809523809523" y="1031.695238095238" type="line"/>
      <point x="775.0809523809523" y="1043.9761904761904" type="line" smooth="yes"/>
      <point x="775.0809523809523" y="1203.5510476190477"/>
      <point x="694.9501904761905" y="1300.5238095238096"/>
      <point x="539.0571428571428" y="1300.5238095238096" type="curve" smooth="yes"/>
      <point x="381.35828571428567" y="1300.5238095238096"/>
      <point x="300.23333333333335" y="1226.328476190476"/>
      <point x="300.23333333333335" y="1086.604761904762" type="curve" smooth="yes"/>
      <point x="300.23333333333335" y="944.8965714285714"/>
      <point x="361.81438095238093" y="900.9237142857143"/>
      <point x="608.1" y="821.1809523809524" type="curve" smooth="yes"/>
      <point x="864.4802857142857" y="737.0608571428572"/>
      <point x="976.5952380952381" y="600.2421904761904"/>
      <point x="976.5952380952381" y="400.01428571428573" type="curve" smooth="yes"/>
      <point x="976.5952380952381" y="152.99485714285714"/>
      <point x="808.4854285714285" y="1.685714285714286"/>
      <point x="546.9238095238095" y="1.685714285714286" type="curve" smooth="yes"/>
      <point x="281.1635238095238" y="1.685714285714286"/>
      <point x="109.38571428571427" y="146.394"/>
    </contour>
    <contour>
      <point x="476.1904761904762" y="-144.38095238095238" type="line"/>
      <point x="476.1904761904762" y="125.76190476190476" type="line"/>
      <point x="610.9142857142857" y="125.76190476190476" type="line"/>
      <point x="610.9142857142857" y="105.61904761904762" type="line"/>
      <point x="619.7904761904762" y="95.61904761904762" type="line"/>
      <point x="619.7904761904762" y="-144.38095238095238" type="line"/>
    </contour>
    <contour>
      <point x="485.06666666666666" y="1327.4285714285713" type="line"/>
      <point x="485.06666666666666" y="1347.5714285714287" type="line"/>
      <point x="476.1904761904762" y="1357.5714285714287" type="line"/>
      <point x="476.1904761904762" y="1611.6190476190477" type="line"/>
      <point x="619.7904761904762" y="1611.6190476190477" type="line"/>
      <point x="619.7904761904762" y="1327.4285714285713" type="line"/>
    </contour>
  </outline>
</glyph>
<glyph name="eight.prop" format="2">
  <advance width="1030"/>
  <outline>
    <contour>
      <point x="112.53333333333333" y="386.0" type="curve" smooth="yes"/>
      <point x="112.53333333333333" y="558.7706666666666"/>
      <point x="197.33866666666665" y="681.2706666666666"/>
      <point x="330.26666666666665" y="743.0" type="curve"/>
      <point x="330.26666666666665" y="747.0" type="line"/>
      <point x="227.89066666666668" y="807.4786666666666"/>
      <point x="152.13333333333333" y="927.6293333333334"/>
      <point x="152.13333333333333" y="1087.0" type="curve" smooth="yes"/>
      <point x="152.13333333333333" y="1328.2"/>
      <point x="305.3119999999999" y="1486.0"/>
      <point x="515.0666666666667" y="1486.0" type="curve" smooth="yes"/>
      <point x="724.8213333333333" y="1486.0"/>
      <point x="878.0" y="1328.2"/>
      <point x="878.0" y="1087.0" type="curve" smooth="yes"/>
      <point x="878.0" y="927.6293333333334"/>
      <point x="800.8133333333334" y="807.4786666666666"/>
      <point x="699.8666666666667" y="747.0" type="curve"/>
      <point x="699.8666666666667" y="743.0" type="line"/>
      <point x="832.7946666666666" y="681.2706666666666"/>
      <point x="917.6" y="560.2"/>
      <point x="917.6" y="386.0" type="curve" smooth="yes"/>
      <point x="917.6" y="120.68"/>
      <point x="747.3333333333333" y="-30.0"/>
      <point x="515.0666666666667" y="-30.0" type="curve" smooth="yes"/>
      <point x="282.79999999999995" y="-30.0"/>
      <point x="112.53333333333333" y="120.68"/>
    </contour>
    <contour>
      <point x="292.0" y="394.93333333333334" type="curve" smooth="yes"/>
      <point x="292.0" y="232.704"/>
      <point x="372.3119999999999" y="122.66666666666667"/>
      <point x="515.0666666666667" y="122.66666666666667" type="curve" smooth="yes"/>
      <point x="656.3919999999999" y="122.66666666666667"/>
      <point x="737.0666666666666" y="232.704"/>
      <point x="737.0666666666666" y="394.93333333333334" type="curve" smooth="yes"/>
      <point x="737.0666666666666" y="558.5920000000001"/>
      <point x="656.3919999999999" y="668.1333333333333"/>
      <point x="515.0666666666667" y="668.1333333333333" type="curve" smooth="yes"/>
      <point x="372.3119999999999" y="668.1333333333333"/>
      <point x="292.0" y="558.5920000000001"/>
    </contour>
    <contour>
      <point x="327.6" y="1078.0666666666666" type="curve" smooth="yes"/>
      <point x="327.6" y="927.808"/>
      <point x="394.82399999999996" y="821.8666666666667"/>
      <point x="515.0666666666667" y="821.8666666666667" type="curve" smooth="yes"/>
      <point x="633.88" y="821.8666666666667"/>
      <point x="702.5333333333333" y="927.808"/>
      <point x="702.5333333333333" y="1078.0666666666666" type="curve" smooth="yes"/>
      <point x="702.5333333333333" y="1228.3253333333334"/>
      <point x="633.88" y="1333.3333333333333"/>
      <point x="515.0666666666667" y="1333.3333333333333" type="curve" smooth="yes"/>
      <point x="394.82399999999996" y="1333.3333333333333"/>
      <point x="327.6" y="1228.3253333333334"/>
    </contour>
  </outline>
</glyph>
<glyph name="horizontalbarH" format="2">
  <advance width="1458"/>
  <outline>
    <contour>
      <point x="1388.6666666666667" y="1027.0" type="line"/>
      <point x="1166.6666666666667" y="1025.0" type="line"/>
      <point x="1166.6666666666667" y="1162.0" type="line"/>
      <point x="1398.6666666666667" y="1164.0" type="line"/>
    </contour>
    <contour>
      <point x="68.33333333333334" y="1025.0" type="line"/>
      <point x="59.333333333333336" y="1162.0" type="line"/>
      <point x="298.3333333333333" y="1162.0" type="line"/>
      <point x="298.3333333333333" y="1025.0" type="line"/>
    </contour>
    <contour>
      <point x="298.3333333333333" y="1035.0" type="line"/>
      <point x="298.3333333333333" y="1152.0" type="line"/>
      <point x="1166.6666666666667" y="1152.0" type="line"/>
      <point x="1166.6666666666667" y="1035.0" type="line"/>
    </contour>
  </outline>
</glyph>
<glyph name="nine.prop" format="2">
  <advance width="1021"/>
  <outline>
    <contour>
      <point x="77.06666666666666" y="1002.0" type="curve" smooth="yes"/>
      <point x="77.06666666666666" y="1291.44"/>
      <point x="250.01333333333338" y="1486.0"/>
      <point x="488.5333333333333" y="1486.0" type="curve" smooth="yes"/>
      <point x="728.4826666666668" y="1486.0"/>
      <point x="923.7333333333333" y="1297.6"/>
      <point x="923.7333333333333" y="842.0" type="curve" smooth="yes"/>
      <point x="923.7333333333333" y="812.0" type="line" smooth="yes"/>
      <point x="923.7333333333333" y="302.79999999999995"/>
      <point x="682.8533333333335" y="-30.0"/>
      <point x="252.26666666666668" y="-30.0" type="curve" smooth="yes"/>
      <point x="235.46666666666667" y="-30.0" type="line"/>
      <point x="235.46666666666667" y="122.66666666666667" type="line"/>
      <point x="252.26666666666668" y="122.66666666666667" type="line" smooth="yes"/>
      <point x="557.4293333333334" y="122.66666666666667"/>
      <point x="744.2666666666667" y="333.0"/>
      <point x="744.2666666666667" y="802.0" type="curve" smooth="yes"/>
      <point x="744.2666666666667" y="852.0" type="line" smooth="yes"/>
      <point x="744.2666666666667" y="1204.688"/>
      <point x="636.112" y="1333.3333333333333"/>
      <point x="488.5333333333333" y="1333.3333333333333" type="curve" smooth="yes"/>
      <point x="342.384" y="1333.3333333333333"/>
      <point x="259.6" y="1212.5586666666668"/>
      <point x="259.6" y="1002.0" type="curve" smooth="yes"/>
      <point x="259.6" y="792.8706666666666"/>
      <point x="342.384" y="674.8"/>
      <point x="488.5333333333333" y="674.8" type="curve" smooth="yes"/>
      <point x="627.0" y="674.8"/>
      <point x="750.2666666666667" y="792.8706666666666"/>
      <point x="750.2666666666667" y="1002.0" type="curve"/>
      <point x="818.1333333333333" y="1002.0" type="line"/>
      <point x="818.1333333333333" y="713.9893333333334"/>
      <point x="673.9733333333334" y="522.1333333333333"/>
      <point x="456.0" y="522.1333333333333" type="curve" smooth="yes"/>
      <point x="229.36133333333333" y="522.1333333333333"/>
      <point x="77.06666666666666" y="713.9893333333334"/>
    </contour>
  </outline>
</glyph>
